#!OML:ASF F:\VICON\USERDATA\INSTALL\rory3\rory3.ASF
:FULLY-SPECIFIED
:DEGREES
1814
root 0.123812 15.5627 -2.67387 19.2106 2.58744 -2.30302
lowerback 36.0054 0.980321 -1.81391
upperback 12.1358 0.505364 -1.47489
thorax -4.52936 0.25611 -0.775125
lowerneck -8.76578 -7.36447 -16.3213
upperneck 0.4924 -9.02548 19.2771
head 3.31373 -4.09878 8.12268
rclavicle -1.35174e-014 9.93923e-015
rhumerus 33.2554 57.7214 -7.87367
rradius 93.4765
rwrist -23.533
rhand 30.5094 10.4854
rfingers 7.12502
rthumb 54.1644 -8.24091
lclavicle -1.35174e-014 9.93923e-015
lhumerus 71.5561 -3.63363 54.4387
lradius 64.4514
lwrist -4.04731
lhand -5.93449 20.9392
lfingers 7.12502
lthumb 19.8953 49.9409
rfemur -46.3947 5.65219 15.2536
rtibia 40.5688
rfoot -9.82188 -10.0219
rtoes -11.1755
lfemur -47.0193 -5.36006 -9.28721
ltibia 38.2999
lfoot -6.67353 3.46196
ltoes -14.467
1815
root 0.12682 15.5605 -2.66954 19.2035 2.74068 -2.34888
lowerback 36.0149 0.954245 -2.08813
upperback 12.2413 0.405295 -1.26457
thorax -4.41743 0.19405 -0.37619
lowerneck -8.82113 -7.29034 -16.5223
upperneck 0.410597 -8.87661 19.1418
head 3.27226 -4.02754 8.12605
rclavicle 8.74653e-015 5.1684e-015
rhumerus 31.872 57.9115 -8.0287
rradius 96.8854
rwrist -23.6717
rhand 31.2593 10.6021
rfingers 7.12502
rthumb 54.8354 -7.65497
lclavicle 8.74653e-015 5.1684e-015
lhumerus 71.3591 -3.8616 54.4202
lradius 62.0428
lwrist -4.32241
lhand -6.06546 21.8994
lfingers 7.12502
lthumb 19.7694 50.9141
rfemur -46.3478 5.42467 15.3691
rtibia 40.5829
rfoot -9.88092 -9.89093
rtoes -11.1057
lfemur -47.1015 -5.61943 -9.14546
ltibia 38.4165
lfoot -6.75897 3.58129
ltoes -14.2723
1816
root 0.133424 15.5566 -2.66724 19.2413 2.81999 -2.36669
lowerback 36.0117 0.921143 -2.30973
upperback 12.2831 0.307216 -1.11136
thorax -4.36951 0.136 -0.0658466
lowerneck -8.79776 -7.19433 -16.6724
upperneck 0.401489 -8.72378 19.0327
head 3.23735 -3.95587 8.13153
rclavicle -7.95139e-016 -5.1684e-015
rhumerus 30.6469 57.626 -8.26922
rradius 100.264
rwrist -23.7823
rhand 32.115 10.6319
rfingers 7.12502
rthumb 55.5977 -7.06537
lclavicle -7.95139e-016 -5.1684e-015
lhumerus 70.8545 -4.0654 53.5524
lradius 59.8234
lwrist -4.60142
lhand -5.56486 22.5161
lfingers 7.12502
lthumb 20.2506 51.4804
rfemur -46.3973 5.21511 15.4331
rtibia 40.6155
rfoot -9.92389 -9.71162
rtoes -11.2716
lfemur -47.2361 -5.77049 -9.08216
ltibia 38.5398
lfoot -6.83198 3.67774
ltoes -14.197
1817
root 0.144266 15.5491 -2.66913 19.4128 2.93173 -2.42379
lowerback 36.0386 0.662381 -2.06781
upperback 12.1342 0.0560415 -1.26556
thorax -4.5411 0.0296707 -0.268187
lowerneck -8.72421 -7.04617 -16.5459
upperneck 0.604894 -8.56657 19.0268
head 3.24959 -3.8775 8.1251
rclavicle 5.56597e-015 6.36111e-015
rhumerus 29.4926 57.1044 -8.82891
rradius 103.64
rwrist -23.7888
rhand 32.2841 10.8264
rfingers 7.12502
rthumb 55.7479 -6.75711
lclavicle 5.56597e-015 6.36111e-015
lhumerus 69.9471 -4.40686 51.6392
lradius 57.8062
lwrist -4.65438
lhand -4.32992 22.9978
lfingers 7.12502
lthumb 21.4371 51.8317
rfemur -46.6181 4.92185 15.5532
rtibia 40.6592
rfoot -9.87915 -9.5412
rtoes -11.4284
lfemur -47.5584 -5.85534 -8.98298
ltibia 38.6609
lfoot -6.80946 3.69955
ltoes -14.417
1818
root 0.148534 15.5467 -2.66833 19.3733 2.93274 -2.55389
lowerback 36.2911 0.464893 -1.9132
upperback 12.0077 -0.153276 -1.37438
thorax -4.76707 -0.0613018 -0.391951
lowerneck -8.71049 -6.88279 -16.4626
upperneck 0.854412 -8.38179 19.0401
head 3.28329 -3.78142 8.13358
rclavicle 8.74653e-015 -3.22031e-014
rhumerus 28.9216 55.9596 -8.95081
rradius 107.026
rwrist -23.9792
rhand 32.3934 11.048
rfingers 7.12502
rthumb 55.8449 -6.46138
lclavicle 8.74653e-015 -3.22031e-014
lhumerus 68.8559 -4.88227 49.1599
lradius 55.8079
lwrist -4.28043
lhand -3.32752 23.0053
lfingers 7.12502
lthumb 22.3996 51.7266
rfemur -46.6073 4.84319 15.7326
rtibia 40.7244
rfoot -9.92928 -9.43146
rtoes -11.362
lfemur -47.5868 -5.85033 -8.85096
ltibia 38.7857
lfoot -6.92241 3.72614
ltoes -14.7219
1819
root 0.15023 15.5464 -2.66637 19.3038 2.82816 -2.51888
lowerback 36.4266 0.413202 -2.10495
upperback 11.9862 -0.28338 -1.35337
thorax -4.83379 -0.127961 -0.224876
lowerneck -8.77173 -6.77298 -16.4537
upperneck 1.08324 -8.24483 18.9719
head 3.33052 -3.70839 8.12093
rclavicle -1.27222e-014 -2.98177e-014
rhumerus 28.8996 54.018 -8.49686
rradius 110.382
rwrist -24.6744
rhand 32.3422 11.0921
rfingers 7.12502
rthumb 55.7995 -6.45202
lclavicle -1.27222e-014 -2.98177e-014
lhumerus 67.6156 -5.59182 46.1828
lradius 54.1576
lwrist -3.38373
lhand -2.54726 23.1328
lfingers 7.12502
lthumb 23.1484 51.762
rfemur -46.5804 4.85449 15.6954
rtibia 40.8181
rfoot -10.0134 -9.38561
rtoes -11.29
lfemur -47.5212 -5.79373 -8.93138
ltibia 38.9017
lfoot -7.03288 3.70559
ltoes -14.8295
